<svg width="1920" height="1080" viewBox="0 0 1920 1080" fill="none" xmlns="http://www.w3.org/2000/svg">
<g id="landscape wallpaper" clip-path="url(#clip0)">
<rect width="1920" height="1080" fill="url(#paint0_linear)"/>
<path id="back" d="M1934.5 474C1669.3 46.4 1198.5 504.333 1037.5 800.5V882.5L1934.5 856V474Z" fill="#5B6758" stroke="black"/>
<path id="middle" d="M1080.5 822C697.5 674 493 584.5 1.5 584.5H-56V1130.5H1080.5V822Z" fill="#788E74" stroke="black"/>
<path id="front" d="M2018.5 732.5C890.5 790.9 177.167 994.5 -38.5 1089V1152H2018.5V732.5Z" fill="#B5E1AE" stroke="black"/>
<g id="grass">
<path id="grass 1" d="M919.874 987.602C919.02 983.227 921.389 982.604 923.32 979.226C924.659 976.883 928.107 975.321 930.428 974.032C931.421 973.48 933.339 972.841 933.994 971.998C934.352 971.538 931.282 970.37 930.859 970.37C927.696 970.37 925.175 971.897 922.243 972.548C920.774 972.875 919.085 974.522 917.72 975.205C916.984 975.573 914.805 977.446 914.082 977.239C913.467 977.064 913.664 969.34 913.866 968.432C914.389 966.078 913.691 961.703 915.781 960.031C916.551 959.415 917.382 957.784 918.055 956.92C918.213 956.716 915.475 957.237 915.135 957.662C914.453 958.514 913.618 959.349 912.765 960.031C911.925 960.703 911.644 961.809 910.922 962.712C909.343 964.686 908.869 968.064 907.715 970.37C907.21 971.381 906.696 974.019 905.872 974.678C905.388 975.066 904.201 973.229 903.503 972.859C901.387 971.739 898.619 969.349 896.179 969.078C894.619 968.904 893.18 967.759 891.68 967.331C890.528 967.002 888.186 966.493 888.186 966.493C888.186 966.493 890.649 967.706 890.986 968.886C891.246 969.795 891.277 971.739 891.967 972.429C893.593 974.055 893.926 976.6 895.414 978.46C896.033 979.234 896.777 980.48 897.663 980.733C898.218 980.892 898.531 981.843 899.004 981.978C900.165 982.31 899.6 982.446 898.764 982.864" stroke="#4E9942" stroke-width="3" stroke-linecap="round"/>
<path id="grass 2" d="M599.018 993.859C599.037 993.071 599.742 991.276 600.557 990.81C601.14 990.477 602.005 989.501 602.621 989.425C603.085 989.366 603.678 988.746 604.16 988.608C604.847 988.412 605.508 987.946 606.1 987.777C607.522 987.371 609.147 987.024 610.227 985.945C611.333 984.838 609.888 983.396 608.718 983.327C607.305 983.244 605.839 982.496 604.283 982.496C602.658 982.496 601.441 982.655 600.003 983.066C598.519 983.49 597.966 985.554 596.939 986.376C596.522 986.709 596.463 988.208 595.753 986.93C595.18 985.897 594.521 985.117 593.536 984.436C591.98 983.358 591.077 981.903 589.872 980.556C588.136 978.616 585.801 977.427 583.497 976.275C582.177 975.615 580.788 975.169 579.402 974.674C578.792 974.456 577.395 973.728 576.723 973.92C575.615 974.236 578.796 976.553 579.002 976.737C580.108 977.734 580.834 979.028 581.496 980.279C582.112 981.442 583.068 982.444 583.636 983.466C584.362 984.773 585.931 986.173 586.254 987.623C586.379 988.189 587.045 988.814 587.316 989.425C587.44 989.704 587.932 991.633 587.932 990.533" stroke="#4E9942" stroke-width="3" stroke-linecap="round"/>
<path id="grass 3" d="M1715.02 925.156C1715.02 921.323 1715.36 917.672 1715.74 913.894C1715.98 911.487 1716.69 908.794 1717.21 906.393C1717.75 903.929 1718.21 900.973 1719.25 898.715C1720.81 895.309 1720.34 891.001 1721.89 887.591C1722.48 886.298 1723.5 882.319 1723.1 880.932C1723.08 880.855 1720.16 883.453 1719.68 883.987C1718.27 885.555 1717.4 887.556 1716 889.119C1714.49 890.787 1714.8 893.541 1713.78 895.366C1712.69 897.329 1712.65 899.881 1712.18 902.025C1711.26 906.158 1709.97 910.25 1709.04 914.403C1708.84 915.329 1708.67 916.027 1708.67 917.047C1708.67 917.715 1709.05 919.847 1708.59 918.81C1707.82 917.074 1708.32 914.295 1708.32 912.386C1708.32 907.877 1707.26 903.399 1707.26 898.892C1707.26 896.817 1707.5 895.069 1707.61 893.075C1707.67 892.091 1707.85 890.479 1708.24 889.55C1708.74 888.357 1708.05 886.897 1708.59 885.672C1708.85 885.1 1709.02 883.284 1709.02 882.675C1709.02 881.742 1709.52 879.098 1709 879.874C1708.01 881.366 1707.9 883.41 1706.83 884.888C1706 886.031 1705.14 888.715 1705.14 890.078C1705.14 891.256 1704.44 892.184 1704.44 893.251C1704.44 894.194 1704.3 895.59 1703.91 896.444C1703.12 898.186 1702.32 901.398 1702.32 903.298C1702.32 905.608 1700.91 908.009 1700.91 910.349C1700.91 912.283 1700.56 914.117 1700.56 916.166C1700.56 916.669 1700.56 919.27 1700.56 917.576C1700.56 916.871 1699.93 916.116 1699.33 915.637C1698.73 915.157 1698.45 914.146 1698.02 913.6C1697.43 912.873 1697.48 911.429 1696.96 910.78C1696.1 909.705 1695.66 907.044 1695.25 905.609C1695.06 904.916 1694.7 904.102 1693.86 904.003C1692.77 903.875 1693.16 901.989 1693.16 901.183C1693.16 899.38 1693.16 900.3 1693.16 901.536C1693.16 902.673 1692.87 903.606 1692.81 904.709C1692.71 906.485 1691.84 908.518 1691.38 910.153C1691.13 911.015 1690.69 911.996 1690.69 912.993C1690.69 913.556 1690.55 916.029 1690.16 916.342C1689.53 916.848 1690.15 918.997 1689.91 919.789C1689.58 920.867 1689.63 921.9 1689.63 923.04C1689.63 924.098 1689.63 925.156 1689.63 926.213C1689.63 926.688 1689.52 927.322 1689.65 927.78C1689.79 928.273 1690.34 927.852 1690.34 928.681" stroke="#4E9942" stroke-width="3" stroke-linecap="round"/>
</g>
<g id="trees">
<g id="tree">
<rect id="stem" x="335" y="800" width="5" height="100" fill="#565656"/>
<g id="leaves">
<path id="Polygon 4" d="M337.5 797L384.698 827.75H290.302L337.5 797Z" fill="#565656"/>
<path id="Polygon 5" d="M337.5 774L376.038 803.25H298.962L337.5 774Z" fill="#565656"/>
<path id="Polygon 6" d="M337 750L366.445 783H307.555L337 750Z" fill="#565656"/>
</g>
</g>
<g id="tree_2">
<rect id="stem_2" x="113.532" y="542.333" width="2.93578" height="88.6667" fill="#565656"/>
<g id="leaves_2">
<path id="Polygon 4_2" d="M115 539.673L142.713 566.938H87.2872L115 539.673Z" fill="#565656"/>
<path id="Polygon 5_2" d="M115 519.28L137.628 545.215H92.3721L115 519.28Z" fill="#565656"/>
<path id="Polygon 6_2" d="M114.706 498L131.995 527.26H97.4177L114.706 498Z" fill="#565656"/>
</g>
</g>
<g id="tree_3">
<rect id="stem_3" x="382" y="518.667" width="5" height="127.333" fill="#565656"/>
<g id="leaves_3">
<path id="Polygon 4_3" d="M384.5 514.847L431.698 554.002H337.302L384.5 514.847Z" fill="#565656"/>
<path id="Polygon 5_3" d="M384.5 485.56L423.038 522.805H345.962L384.5 485.56Z" fill="#565656"/>
<path id="Polygon 6_3" d="M384 455L413.445 497.02H354.555L384 455Z" fill="#565656"/>
</g>
</g>
<g id="tree_4">
<rect id="stem_4" x="770.505" y="641" width="3.99082" height="100" fill="#565656"/>
<g id="leaves_4">
<path id="Polygon 4_4" d="M772.5 638L810.172 668.75H734.828L772.5 638Z" fill="#565656"/>
<path id="Polygon 5_4" d="M772.5 615L803.26 644.25H741.74L772.5 615Z" fill="#565656"/>
<path id="Polygon 6_4" d="M772.101 591L795.603 624H748.599L772.101 591Z" fill="#565656"/>
</g>
</g>
<g id="tree_5">
<rect id="stem_5" x="539" y="684.667" width="5" height="87.3333" fill="#565656"/>
<g id="leaves_5">
<path id="Polygon 4_5" d="M541.5 682.047L588.698 708.902H494.302L541.5 682.047Z" fill="#565656"/>
<path id="Polygon 5_5" d="M541.5 661.96L580.038 687.505H502.962L541.5 661.96Z" fill="#565656"/>
<path id="Polygon 6_5" d="M541 641L570.445 669.82H511.555L541 641Z" fill="#565656"/>
</g>
</g>
<g id="tree_6">
<rect id="stem_6" x="792" y="747" width="5" height="100" fill="#565656"/>
<g id="leaves_6">
<path id="Polygon 4_6" d="M794.5 744L841.698 774.75H747.302L794.5 744Z" fill="#565656"/>
<path id="Polygon 5_6" d="M794.5 721L833.038 750.25H755.962L794.5 721Z" fill="#565656"/>
<path id="Polygon 6_6" d="M794 697L823.445 730H764.555L794 697Z" fill="#565656"/>
</g>
</g>
<g id="tree_7">
<rect id="stem_7" x="139.605" y="723" width="6.78899" height="100" fill="#565656"/>
<g id="leaves_7">
<path id="Polygon 4_7" d="M143 720L207.086 750.75H78.9141L143 720Z" fill="#565656"/>
<path id="Polygon 5_7" d="M143 697L195.327 726.25H90.673L143 697Z" fill="#565656"/>
<path id="Polygon 6_7" d="M142.321 673L182.301 706H102.341L142.321 673Z" fill="#565656"/>
</g>
</g>
<g id="tree_8">
<rect id="stem_8" x="1840.05" y="628.333" width="14.9083" height="298.667" fill="#8B5C5C"/>
<g id="leaves_8">
<path id="Polygon 4_8" d="M1847.5 619.373L1988.23 711.213H1706.77L1847.5 619.373Z" fill="#9CDE7D"/>
<path id="Polygon 5_8" d="M1847.5 550.68L1962.41 638.04H1732.59L1847.5 550.68Z" fill="#9CDE7D"/>
<path id="Polygon 6_8" d="M1846.01 479L1933.8 577.56H1758.21L1846.01 479Z" fill="#9CDE7D"/>
</g>
</g>
<g id="tree_9">
<rect id="stem_9" x="1379.63" y="664.667" width="5.73395" height="179.333" fill="#8B5C5C"/>
<g id="leaves_9">
<path id="Polygon 4_9" d="M1382.5 659.287L1436.63 714.432H1328.37L1382.5 659.287Z" fill="#9CDE7D"/>
<path id="Polygon 5_9" d="M1382.5 618.04L1426.7 670.495H1338.3L1382.5 618.04Z" fill="#9CDE7D"/>
<path id="Polygon 6_9" d="M1381.93 575L1415.69 634.18H1348.16L1381.93 575Z" fill="#9CDE7D"/>
</g>
</g>
<g id="tree_10">
<rect id="stem_10" x="633.495" y="797" width="11.0092" height="188" fill="#8B5C5C"/>
<g id="leaves_10">
<path id="Polygon 4_10" d="M639 791.36L742.923 849.17H535.077L639 791.36Z" fill="#9CDE7D"/>
<path id="Polygon 5_10" d="M639 748.12L723.855 803.11H554.145L639 748.12Z" fill="#9CDE7D"/>
<path id="Polygon 6_10" d="M637.899 703L702.732 765.04H573.066L637.899 703Z" fill="#9CDE7D"/>
</g>
</g>
</g>
<g id="giraffe">
<path id="body and legs" d="M1209.83 907.248C1198.68 874.999 1167.23 877.786 1134.18 870.619C1128.34 870.354 1115.71 858.197 1111.89 811.694C1120.91 799.749 1132.67 768.694 1107.51 740.027C1101.01 733.79 1083.7 724.739 1066.5 738.435C1062.25 740.956 1053.28 749.264 1051.37 762.324C1043.27 764.978 1026.53 774.427 1024.3 790.99C1021.51 811.694 1039.03 822.842 1049.38 826.027C1053.89 828.15 1065.54 831.76 1076.06 829.212C1075.74 839.086 1082.82 901.807 1086.41 931.933C1090.87 960.6 1088.27 987.939 1086.41 998.025C1105.2 1006.63 1116 1001.61 1119.05 998.025C1117.86 985.152 1116.59 958.131 1121.05 953.035C1126.62 946.665 1160.86 943.479 1165.24 956.22C1168.74 966.413 1165.11 991.257 1162.85 1002.4C1172.72 1005.27 1188.2 1003.6 1194.7 1002.4L1199.08 945.47C1206.65 931.535 1201.87 902.471 1203.46 905.656C1205.05 908.841 1215.41 915.211 1213.02 927.952C1211.11 938.144 1218.06 943.878 1221.78 945.47C1228.54 931.137 1217.4 933.924 1217.4 927.952C1217.4 923.174 1212.35 912.159 1209.83 907.248Z" fill="#F9C16E" stroke="black"/>
<g id="spots">
<g id="spot">
<ellipse id="spot_2" cx="1105.92" cy="842.749" rx="10.3518" ry="7.56475" fill="#5E3B26"/>
</g>
<g id="spot_3">
<ellipse id="spot_4" cx="1093.3" cy="882.503" rx="12.9938" ry="8.75022" transform="rotate(29.3488 1093.3 882.503)" fill="#5E3B26"/>
</g>
<g id="spot_5">
<ellipse id="spot_6" cx="1177.98" cy="925.165" rx="16.3239" ry="10.3518" transform="rotate(18.8514 1177.98 925.165)" fill="#5E3B26"/>
</g>
<g id="spot_7">
<ellipse id="spot_8" cx="1184.35" cy="945.072" rx="5.97217" ry="4.77774" fill="#5E3B26"/>
</g>
<g id="spot_9">
<ellipse id="spot_10" cx="1129.73" cy="932.265" rx="10.3518" ry="7.56475" transform="rotate(-45.1567 1129.73 932.265)" fill="#5E3B26"/>
</g>
<g id="spot_11">
<ellipse id="spot_12" cx="1131.41" cy="892.954" rx="11.2455" ry="13.885" transform="rotate(15.3177 1131.41 892.954)" fill="#5E3B26"/>
</g>
<g id="spot_13">
<ellipse id="spot_14" cx="1190.45" cy="896.297" rx="7.56475" ry="4.81631" transform="rotate(40.1125 1190.45 896.297)" fill="#5E3B26"/>
</g>
<g id="spot_15">
<ellipse id="spot_16" cx="1106.6" cy="960.399" rx="6.37032" ry="5.57403" transform="rotate(-19.2737 1106.6 960.399)" fill="#5E3B26"/>
</g>
<g id="spot_17">
<ellipse id="spot_18" cx="1098.41" cy="929.305" rx="10.3518" ry="4.82176" transform="rotate(-73.0766 1098.41 929.305)" fill="#5E3B26"/>
</g>
<g id="spot_19">
<ellipse id="spot_20" cx="1111.49" cy="944.674" rx="3.18516" ry="4.37959" fill="#5E3B26"/>
</g>
<g id="spot_21">
<ellipse id="spot_22" cx="1178.78" cy="963.785" rx="5.17588" ry="3.5833" fill="#5E3B26"/>
</g>
<g id="spot_23">
<ellipse id="spot_24" cx="1170.53" cy="900.647" rx="8.75919" ry="6.76846" transform="rotate(-99.1339 1170.53 900.647)" fill="#5E3B26"/>
</g>
<g id="spot_25">
<ellipse id="spot_26" cx="1116.85" cy="865.867" rx="3.98755" ry="7.56475" transform="rotate(-150.547 1116.85 865.867)" fill="#5E3B26"/>
</g>
<g id="spot_27">
<ellipse id="spot_28" cx="1081.23" cy="842.749" rx="3.98145" ry="7.56475" transform="rotate(-8.90626 1081.23 842.749)" fill="#5E3B26"/>
</g>
<g id="spot_29">
<ellipse id="spot_30" cx="1111.09" cy="762.722" rx="4.37959" ry="7.9629" transform="rotate(-9.51985 1111.09 762.722)" fill="#5E3B26"/>
</g>
<g id="spot_31">
<ellipse id="spot_32" cx="1106.71" cy="747.194" rx="3.98145" ry="2.78701" fill="#5E3B26"/>
</g>
<g id="spot_33">
<ellipse id="spot_34" cx="1101.54" cy="755.555" rx="2.78701" ry="4.77774" fill="#5E3B26"/>
</g>
</g>
<g id="eyes">
<ellipse id="Ellipse 5" cx="1087.6" cy="763.12" rx="6.37032" ry="9.95362" fill="#1E1D1B"/>
<ellipse id="Ellipse 6" cx="1066.1" cy="760.731" rx="6.37032" ry="9.95362" fill="#1E1D1B"/>
<ellipse id="Ellipse 7" cx="1067.69" cy="760.333" rx="1.59258" ry="2.38887" fill="#C4C4C4"/>
<ellipse id="Ellipse 8" cx="1088.4" cy="762.722" rx="1.59258" ry="2.38887" fill="#C4C4C4"/>
</g>
<g id="ears">
<line id="Line 1" x1="1099.43" y1="735.229" x2="1104.21" y2="724.877" stroke="#5F3826" stroke-width="2"/>
<line id="Line 2" x1="1087.42" y1="731.717" x2="1088.18" y2="721.121" stroke="#5F3826" stroke-width="2"/>
<circle id="Ellipse 3" cx="1088.4" cy="715.741" r="5.57403" fill="#5E3C23"/>
<circle id="Ellipse 4" cx="1105.92" cy="720.518" r="5.57403" fill="#5E3C23"/>
<path id="outer ear 1" d="M1065.17 705.381C1076.11 715.113 1078.84 727.345 1078.84 732.244C1073.98 735.488 1067.7 737.988 1065.17 738.833C1056.06 731.23 1051.5 693.217 1065.17 705.381Z" fill="#FABD64" stroke="black"/>
<path id="inner ear 1" d="M1065.86 712.28C1074.07 718.987 1076.96 728.239 1077.38 732.027C1074.38 734.897 1070.36 737.298 1068.72 738.14C1061.92 732.943 1055.6 703.897 1065.86 712.28Z" fill="#5C3B2A" stroke="black"/>
<path id="outer ear 2" d="M1127.41 717.258C1113.73 722.459 1106.82 732.917 1105.08 737.495C1108.46 742.257 1113.44 746.828 1115.5 748.518C1126.73 744.657 1144.52 710.756 1127.41 717.258Z" fill="#F8C06B" stroke="black"/>
<path id="inner ear 2" d="M1122.62 724.682C1113.12 728.787 1108.16 736.605 1106.87 740C1109.09 743.42 1112.41 746.668 1113.79 747.864C1121.56 744.793 1134.48 719.549 1122.62 724.682Z" fill="#5E3B25" stroke="black"/>
</g>
</g>
<g id="clouds">
<g id="cloud 1">
<path d="M299.786 131.159C295.59 135.356 292.375 136.45 293.228 142.566C289.905 141.984 286.053 139.047 283.517 137.018C279.468 133.779 276.045 133.252 270.805 133.252C265.333 133.252 263.844 136.969 260.238 140.575C259.385 141.428 256.828 144.312 256.681 145.493C256.41 147.655 253.236 144.551 251.973 144.551C238.476 144.551 242.556 159.29 242.556 167.621C242.556 169.751 244.339 173.851 245.59 175.415C246.698 176.8 250.025 178.45 247.264 178.45C241.769 178.45 243.25 185.537 243.498 189.749C243.82 195.223 251.206 197.132 255.268 198.694C261.388 201.048 265.598 202.932 272.217 202.932C274.748 202.932 277.194 202.113 279.28 201.99C280.143 201.939 285.158 199.813 285.452 200.107C285.497 200.151 284.381 201.969 284.197 202.199C283.617 202.925 283.988 204.871 283.988 205.757C283.988 208.936 285.002 210.938 287.754 212.557C288.295 212.875 293.309 216.489 293.352 216.638C293.992 218.879 298.392 217.998 300.466 217.998H307.999C310.736 217.998 312.962 215.796 315.532 215.225C318.644 214.534 319.482 222.941 321.862 225.321C325.543 229.002 332.413 225.839 335.045 222.915C337.926 219.714 342.107 214.91 343.258 210.883C343.623 209.604 343.76 205.585 344.722 204.815C346.837 203.124 344.321 201.293 347.547 203.873C349.42 205.372 351.16 206.82 352.726 208.581C353.803 209.793 355.363 213.424 356.493 214.022C360.249 216.011 365.461 215.414 367.583 211.406C368.522 209.632 370.802 208.641 371.506 206.175C372.252 203.564 372.5 201.468 372.5 198.694V181.745C372.5 177.353 366.851 175.361 366.851 170.917C366.851 166.024 367.133 160.943 366.851 155.851C366.574 150.875 361.807 147.167 357.975 144.187L357.905 144.133C352.53 139.952 348.867 143.031 343.728 144.499C341.654 145.092 340.653 147.197 338.602 148.108C335.477 149.497 336.884 143.943 337.451 142.668C339.197 138.74 337.172 132.171 336.719 128.544C335.631 119.841 316.867 122.414 311.766 125.248C307.736 127.487 303.362 127.583 299.786 131.159Z" fill="white"/>
<path d="M293.404 143.609C292.028 136.56 295.361 135.584 299.786 131.159C303.362 127.583 307.736 127.487 311.766 125.248C316.867 122.414 335.631 119.841 336.719 128.544C337.172 132.171 339.197 138.74 337.451 142.668C336.884 143.943 335.477 149.497 338.602 148.108C340.653 147.197 341.654 145.092 343.728 144.499C348.867 143.031 352.53 139.952 357.905 144.133C361.749 147.122 366.572 150.845 366.851 155.851C367.133 160.943 366.851 166.024 366.851 170.917C366.851 175.361 372.5 177.353 372.5 181.745C372.5 187.395 372.5 193.045 372.5 198.694C372.5 201.468 372.252 203.564 371.506 206.175C370.802 208.641 368.522 209.632 367.583 211.406C365.461 215.414 360.249 216.011 356.493 214.022C355.363 213.424 353.803 209.793 352.726 208.581C351.16 206.82 349.42 205.372 347.547 203.873C344.321 201.293 346.837 203.124 344.722 204.815C343.76 205.585 343.623 209.604 343.258 210.883C342.107 214.91 337.926 219.714 335.045 222.915C332.413 225.839 325.543 229.002 321.862 225.321C319.482 222.941 318.644 214.534 315.532 215.225C312.962 215.796 310.736 217.998 307.999 217.998C305.488 217.998 302.977 217.998 300.466 217.998C298.392 217.998 293.992 218.879 293.352 216.638C293.309 216.489 288.295 212.875 287.754 212.557C285.002 210.938 283.988 208.936 283.988 205.757C283.988 204.871 283.617 202.925 284.197 202.199C284.381 201.969 285.497 200.151 285.452 200.107C285.158 199.813 280.143 201.939 279.28 201.99C277.194 202.113 274.748 202.932 272.217 202.932C265.598 202.932 261.388 201.048 255.268 198.694C251.206 197.132 243.82 195.223 243.498 189.749C243.25 185.537 241.769 178.45 247.264 178.45C250.025 178.45 246.698 176.8 245.59 175.415C244.339 173.851 242.556 169.751 242.556 167.621C242.556 159.29 238.476 144.551 251.973 144.551C253.236 144.551 256.41 147.655 256.681 145.493C256.828 144.312 259.385 141.428 260.238 140.575C263.844 136.969 265.332 133.252 270.805 133.252C276.045 133.252 279.468 133.779 283.517 137.018C286.344 139.279 290.804 142.668 294.346 142.668" stroke="white" stroke-width="3" stroke-linecap="round"/>
</g>
<g id="cloud 2">
<path d="M909.533 148.019C909.613 144.791 910.532 137.531 915.06 136.965C915.698 136.885 922.561 133.392 922.798 133.096C923.92 131.693 930.883 129.33 932.747 129.227C936.559 129.015 939.337 131.403 942.143 133.649C945.317 136.188 944.907 138.63 944.907 142.492C944.907 148.606 944.902 144.707 947.671 142.492C952.57 138.573 956.022 133.236 962.103 131.499C965.55 130.514 969.443 130.332 973.096 130.332C976.834 130.332 977.658 134.102 978.93 136.965C979.681 138.654 979.699 141.733 979.23 144.236C979.233 144.228 979.235 144.22 979.237 144.212C979.643 142.791 982.266 142.088 982.492 140.281C982.9 137.022 995.889 129.414 999.074 129.227C1008.42 128.677 1009.02 134.386 1009.02 142.492C1009.02 148.357 1008.2 148.678 1013.44 146.054C1017.81 143.87 1019.94 143.598 1025.05 143.598C1030.69 143.598 1030.03 144.959 1030.03 150.23C1030.03 153.874 1030.21 158.32 1031.19 161.776C1031.84 164.029 1039.6 161.285 1041.08 161.285C1044.69 161.285 1047.78 161.472 1050.42 164.11C1054.95 168.64 1053.24 180.093 1053.24 186.157C1053.24 191.869 1049.74 197.336 1045.75 201.326C1044.56 202.515 1042.81 202.291 1041.14 202.19C1041.81 205.224 1040.98 209.201 1039.12 211.276C1034.56 216.339 1031.23 226.071 1023.39 226.506C1018.38 226.785 1017.87 228.718 1015.1 223.743C1012.4 218.875 1012.64 220.359 1012.34 225.401C1011.83 234.097 986.145 250.071 982.431 237.069C981.35 233.287 979.432 230.864 979.176 226.506C979.067 224.658 973.462 230.662 971.99 230.989C968.004 231.875 965.955 234.244 961.489 234.244H949.881C943.04 234.244 932.747 236.39 932.747 227.612C932.747 222.565 934.042 220.894 928.878 223.19C926.156 224.399 921.104 226.346 918.376 226.506C912.507 226.851 900.689 225.417 900.689 217.663C900.689 213.692 900.775 210.646 897.373 214.899C896.506 215.982 889.892 217.582 888.529 217.663C882.368 218.025 872.184 218.967 868.631 212.749C865.059 206.499 861.094 202.247 868.078 196.659C870.107 195.036 860.005 191.771 859.787 190.026C859.589 188.437 857.68 187.463 857.576 185.605C857.465 183.592 857.576 181.541 857.576 179.525L857.576 179.299C857.576 170.862 857.576 167.049 865.929 164.662C868.848 163.828 865.917 158.696 865.253 156.372C864.142 152.481 863.962 148.051 864.209 143.598C864.451 139.25 868.865 136.965 872.5 136.965C875.122 136.965 878.003 142.048 878.334 141.387C882.157 133.742 886.231 133.123 895.162 133.649C896.708 133.739 901.535 137.44 901.856 138.562C902.413 140.51 907.984 147.503 909.533 148.019Z" fill="white"/>
<path d="M909.533 148.019C909.613 144.791 910.532 137.531 915.06 136.965C915.698 136.885 922.561 133.392 922.798 133.096C923.92 131.693 930.883 129.33 932.747 129.227C936.559 129.015 939.337 131.403 942.143 133.649C945.317 136.188 944.907 138.63 944.907 142.492C944.907 148.606 944.902 144.707 947.671 142.492C952.57 138.573 956.022 133.236 962.103 131.499C965.55 130.514 969.443 130.332 973.096 130.332C976.834 130.332 977.658 134.102 978.93 136.965C980.073 139.535 979.52 145.323 978.132 147.405C977.507 148.342 978.928 145.295 979.237 144.212C979.643 142.791 982.266 142.088 982.492 140.281C982.9 137.022 995.889 129.414 999.074 129.227C1008.42 128.677 1009.02 134.386 1009.02 142.492C1009.02 148.357 1008.2 148.678 1013.44 146.054C1017.81 143.87 1019.94 143.598 1025.05 143.598C1030.69 143.598 1030.03 144.959 1030.03 150.23C1030.03 153.874 1030.21 158.32 1031.19 161.776C1031.84 164.029 1039.6 161.285 1041.08 161.285C1044.69 161.285 1047.78 161.472 1050.42 164.11C1054.95 168.64 1053.24 180.093 1053.24 186.157C1053.24 191.869 1049.74 197.336 1045.75 201.326C1044.54 202.53 1042.77 202.285 1041.08 202.186C1038.18 202.016 1040.49 199.829 1041.02 201.695C1041.9 204.778 1041.09 209.087 1039.12 211.276C1034.56 216.339 1031.23 226.071 1023.39 226.506C1018.38 226.785 1017.87 228.718 1015.1 223.743C1012.4 218.875 1012.64 220.359 1012.34 225.401C1011.83 234.097 986.145 250.071 982.431 237.069C981.35 233.287 979.432 230.864 979.176 226.506C979.067 224.658 973.462 230.662 971.99 230.989C968.004 231.875 965.955 234.244 961.489 234.244C957.62 234.244 953.75 234.244 949.881 234.244C943.04 234.244 932.747 236.39 932.747 227.612C932.747 222.565 934.042 220.894 928.878 223.19C926.156 224.399 921.104 226.346 918.376 226.506C912.507 226.851 900.689 225.417 900.689 217.663C900.689 213.692 900.775 210.646 897.373 214.899C896.506 215.982 889.892 217.582 888.529 217.663C882.368 218.025 872.184 218.967 868.631 212.749C865.059 206.499 861.094 202.247 868.078 196.659C870.107 195.036 860.005 191.771 859.787 190.026C859.589 188.437 857.68 187.463 857.576 185.605C857.465 183.592 857.576 181.541 857.576 179.525C857.576 170.93 857.501 167.07 865.929 164.662C868.848 163.828 865.917 158.696 865.253 156.372C864.142 152.481 863.962 148.051 864.209 143.598C864.451 139.25 868.865 136.965 872.5 136.965C875.122 136.965 878.003 142.048 878.334 141.387C882.157 133.742 886.231 133.123 895.162 133.649C896.708 133.739 901.535 137.44 901.856 138.562C902.413 140.51 907.984 147.503 909.533 148.019Z" stroke="white" stroke-width="3" stroke-linecap="round"/>
</g>
<g id="cloud 3">
<path d="M692.355 226.731C692.355 218.415 695.366 216.737 699.939 211.02C701.468 209.109 703.044 209.395 705.357 209.395C708.788 209.395 707.842 212.691 709.931 214.572C712.599 216.972 721.247 213.729 724.318 213.729C726.082 213.729 730.131 212.944 731.12 214.812C731.436 215.41 732.227 221.897 733.287 221.073C739.896 215.932 749.735 214.812 758.448 214.812C763.44 214.812 768.2 214.826 768.2 220.651C768.2 222.172 769.388 216.979 770.909 216.979C773.503 216.979 774.971 215.896 777.41 215.896C780.224 215.896 782.648 214.812 785.536 214.812C789.39 214.812 788.437 215.74 790.953 217.22C794.351 219.219 793.372 229.512 794.806 229.921C798.439 230.959 805.167 228.501 807.447 232.149C809.951 236.155 814.615 238.13 815.814 243.525C816.122 244.91 816.505 249.27 814.791 249.485C811.732 249.867 811.983 251.705 814.55 252.494C819.686 254.075 824.542 255.857 824.542 261.945C824.542 265.825 816.191 269.818 813.466 271.997C812.184 273.024 807.75 272.238 806.123 272.238C805.512 272.238 804.597 271.489 803.902 270.801C806.378 274.668 801.867 279.22 799.08 281.388C795.733 283.99 787.483 285.24 783.369 285.24C781.857 285.24 777.867 285.947 776.868 284.698C776.062 283.692 773.617 279.076 773.617 282.531C773.617 286.872 766.159 292.12 762.782 293.908C757.869 296.509 730.277 303.793 730.277 293.908C730.277 291.468 730.692 290.018 731.262 288.024L731.301 287.889C731.585 286.892 730.245 288.491 727.568 288.491C720.981 288.491 717.329 287.913 711.316 285.24C708.254 283.879 703.824 273.882 702.106 274.646C697.026 276.904 692.608 279.592 687.479 275.489C684.347 272.983 682.078 268.602 679.593 265.496C677.787 263.239 680.925 261.403 676.644 261.403C674.38 261.403 670.701 262.253 669.601 259.778C666.279 252.304 657.961 238.647 669.119 235.459C673.645 234.166 672.126 229.478 675.259 226.972C676.905 225.655 690.07 226.731 692.355 226.731Z" fill="white"/>
<path d="M692.355 226.731C692.355 218.415 695.366 216.737 699.939 211.02C701.468 209.109 703.044 209.395 705.357 209.395C708.788 209.395 707.842 212.691 709.931 214.572C712.599 216.972 721.247 213.729 724.318 213.729C726.082 213.729 730.131 212.944 731.12 214.812C731.436 215.41 732.227 221.897 733.287 221.073C739.896 215.932 749.735 214.812 758.448 214.812C763.44 214.812 768.2 214.826 768.2 220.651C768.2 222.172 769.388 216.979 770.909 216.979C773.503 216.979 774.971 215.896 777.41 215.896C780.224 215.896 782.648 214.812 785.536 214.812C789.39 214.812 788.437 215.74 790.953 217.22C794.351 219.219 793.372 229.512 794.806 229.921C798.439 230.959 805.167 228.501 807.447 232.149C809.951 236.155 814.615 238.13 815.814 243.525C816.122 244.91 816.505 249.27 814.791 249.485C811.732 249.867 811.983 251.705 814.55 252.494C819.686 254.075 824.542 255.857 824.542 261.945C824.542 265.825 816.191 269.818 813.466 271.997C812.184 273.024 807.75 272.238 806.123 272.238C804.838 272.238 802.204 268.922 803.113 269.83C807.158 273.876 802.104 279.035 799.08 281.388C795.733 283.99 787.483 285.24 783.369 285.24C781.857 285.24 777.867 285.947 776.868 284.698C776.062 283.692 773.617 279.076 773.617 282.531C773.617 286.872 766.159 292.12 762.782 293.908C757.869 296.509 730.277 303.793 730.277 293.908C730.277 291.414 730.711 289.953 731.301 287.889C731.585 286.892 730.245 288.491 727.568 288.491C720.981 288.491 717.329 287.913 711.316 285.24C708.254 283.879 703.824 273.882 702.106 274.646C697.026 276.904 692.608 279.592 687.479 275.489C684.347 272.983 682.078 268.602 679.593 265.496C677.787 263.239 680.925 261.403 676.644 261.403C674.38 261.403 670.701 262.253 669.601 259.778C666.279 252.304 657.961 238.647 669.119 235.459C673.645 234.166 672.126 229.478 675.259 226.972C676.905 225.655 690.07 226.731 692.355 226.731Z" stroke="white" stroke-width="3" stroke-linecap="round"/>
</g>
<g id="cloud 4">
<path d="M1256.13 122.668C1255.71 118.68 1264.49 103.835 1272 108.5C1274.66 106.37 1277.45 110.837 1277.45 114.047C1277.45 118.148 1281.8 114.173 1283.95 114.047C1286.99 113.867 1290.11 114.047 1293.16 114.047C1297.79 114.047 1296.95 115.858 1296.95 120.006C1296.95 122.608 1302.82 120.548 1305.08 120.548C1308.97 120.548 1312.42 120.756 1315.85 122.715C1317.34 123.563 1316.45 129.746 1316.45 131.383V136.258C1316.45 137.405 1314.39 139.99 1315.37 140.051C1318.32 140.235 1321.69 139.469 1324.58 140.111C1328.44 140.968 1327.29 145.115 1327.29 148.177C1327.29 154.827 1320.56 161.339 1315.37 163.647C1313.69 164.392 1305.07 162.531 1308.03 165.814C1309.22 167.136 1309.88 175.079 1308.63 176.649C1303.92 182.535 1298.47 182.307 1290.99 182.307C1286.17 182.307 1285.63 178.922 1282.86 183.15C1279.97 187.583 1273.95 188.033 1269.38 189.049C1261.73 190.748 1253.61 192.749 1253.61 181.766C1253.61 180.198 1253.51 173.069 1251.92 172.616C1248.58 171.66 1248.26 170.479 1246.03 167.68C1243.16 164.097 1243.04 156.402 1242.77 151.969C1242.61 149.234 1238.45 137.879 1241.15 135.717C1243.68 133.69 1245.26 134.011 1248.19 132.707C1249.46 132.143 1251.89 133.117 1251.38 130.841C1251.11 129.615 1249.42 127.521 1250.6 126.206C1252.67 123.908 1254.63 122.991 1256.13 122.668Z" fill="white"/>
<path d="M1259 122.715C1250.58 128.77 1262.35 102.5 1272 108.5C1274.66 106.37 1277.45 110.837 1277.45 114.047C1277.45 118.148 1281.8 114.173 1283.95 114.047C1286.99 113.867 1290.11 114.047 1293.16 114.047C1297.79 114.047 1296.95 115.858 1296.95 120.006C1296.95 122.608 1302.82 120.548 1305.08 120.548C1308.97 120.548 1312.42 120.756 1315.85 122.715C1317.34 123.563 1316.45 129.746 1316.45 131.383C1316.45 133.008 1316.45 134.633 1316.45 136.258C1316.45 137.405 1314.39 139.99 1315.37 140.051C1318.32 140.235 1321.69 139.469 1324.58 140.111C1328.44 140.968 1327.29 145.115 1327.29 148.177C1327.29 154.827 1320.56 161.339 1315.37 163.647C1313.69 164.392 1305.07 162.531 1308.03 165.814C1309.22 167.136 1309.88 175.079 1308.63 176.649C1303.92 182.535 1298.47 182.307 1290.99 182.307C1286.17 182.307 1285.63 178.922 1282.86 183.15C1279.97 187.583 1273.95 188.033 1269.38 189.049C1261.73 190.748 1253.61 192.749 1253.61 181.766C1253.61 180.198 1253.51 173.069 1251.92 172.616C1248.58 171.66 1248.26 170.479 1246.03 167.68C1243.16 164.097 1243.04 156.402 1242.77 151.969C1242.61 149.234 1238.45 137.879 1241.15 135.717C1243.68 133.69 1245.26 134.011 1248.19 132.707C1249.46 132.143 1251.89 133.117 1251.38 130.841C1251.11 129.615 1249.42 127.521 1250.6 126.206C1255.06 121.255 1259 122.715 1259 122.715Z" stroke="white" stroke-width="3" stroke-linecap="round"/>
</g>
</g>
<g id="sun">
<path id="sun wave" d="M1746.5 228.5C1748.9 210.1 1766.17 194.5 1774.5 189C1773.33 186.167 1773.5 180.6 1783.5 181C1796 181.5 1786.5 157.5 1783.5 150C1780.5 142.5 1791 143.5 1783.5 126C1777.5 112 1781 106.5 1783.5 105.5C1813.5 74 1725 84 1732 67.5C1739 51 1708 18.5 1697 35.5C1686 52.5 1677.5 47.5 1651.5 48.5C1625.5 49.5 1629 68.5 1622 72.5C1615 76.5 1620.5 91.5 1618 97.5C1616 102.3 1610.5 104.833 1608 105.5C1603.2 132.7 1610 155.167 1614 163C1599 189 1615 200.5 1614 207C1613 213.5 1633 232 1651.5 228.5C1666.3 225.7 1688 229.667 1697 232C1712.5 238.5 1744.1 246.9 1746.5 228.5Z" fill="#FFB673" stroke="black"/>
<circle id="sun_2" cx="1689.5" cy="143.5" r="65.5" fill="#FFE178"/>
</g>
</g>
<defs>
<linearGradient id="paint0_linear" x1="960" y1="0" x2="960" y2="1080" gradientUnits="userSpaceOnUse">
<stop stop-color="#9AEDFF"/>
<stop offset="1" stop-color="#F4FDFF"/>
</linearGradient>
<clipPath id="clip0">
<rect width="1920" height="1080" fill="white"/>
</clipPath>
</defs>
</svg>
